<svg id="Layer_2" data-name="Layer 2" xmlns="http://www.w3.org/2000/svg" viewBox="0 0 307.84 16.63">
  <g id="Layer_1-2" data-name="Layer 1">
    <g>
      <path class="cls-1" d="m307.84,6.11c-.15-1.89-12-6.89-12.74-6s0,13.11,1.15,14c.68.6,11.78-6.31,11.59-8Z"/>
      <path class="cls-2" d="m256.34,6.96c-.29.02-.58.02-.87,0-.3,0-.71.13-1,.15-.55.05-1.08.18-1.63.22l-2.3.13-4.33.17-5.84.2h-.61l-8,.3c-1.51.07-5.22.23-5.56.22-.56,0-3.9.21-4.47.24-.22,0-1.75.15-3,.22,0,.95.31,1.82.28,2.77,4-.19,7.95-.37,11.82-.55l14.51-.59,6.57-.3c1.4,0,2.81.35,4.17.31.35,0,.7-.11,1-.29.3-.21.4-.16.51-.3.13-.25.18-.53.13-.81-.12-.92-.69-2.2-1.38-2.09Z"/>
      <path class="cls-2" d="m198.41,9.4s-2.86.1-4.18.14h-.55c-.87,0-1.87.06-2.89.12-11.33.38-22.69.76-34.07,1.15-4,.16-7.91.33-11.94.38-7.13.08-14.3.29-21.45.42-3.38.07-5.61.27-10.13.25h-7.61c-3.58.11-5.38.17-9,.29l-23.89.63h-6.3c-3.42,0-6.37,0-9.63.14-3,.16-5.59.28-8.93.26-5.37,0-10.72.14-16.13.19-4.29.05-8.34.09-12.4.13h-10.03c-.64-.08-1.29-.11-1.94-.11-1.56.05-3.12,0-4.68-.13-.69-.01-2.36.37-2.56.83-.07.27.07.54-.07.86-.2.62.83,1.68,1.77,1.68s2-.1,2.95-.13c.95-.03,2.06,0,3.08,0,.41,0,.82-.1,1.22-.16.2,0,.4-.06.61-.08h.95c3.26,0,6.41-.15,9.9-.07,5.02.06,10.37-.16,15.57-.21,11.49-.13,23.18-.28,34.71-.42,7.33-.06,14.77-.36,21.93-.51,19.91-.45,39.82-.89,59.73-1.54,5-.15,9.92-.3,14.88-.44,6.73-.21,11.79-.47,18.38-.49h1.16c2,0,4.07-.09,6.16-.16,4.14-.2,7.89-.34,12-.42.64-.9,1.4-2,1.27-2.89-1.07,0-2.06,0-3.26.12-1.45.07-3.01.13-4.63.17Z"/>
      <path class="cls-2" d="m252.53,7.49c-.39.03-.77.03-1.16,0-.51,0-1.48-.07-2,0-3.09.17-4.64.25-7.73.41-8,.34-15.97.67-23.92,1-2.09.08-4.2.11-6.29.14-3.42,0-6.37.08-9.63.31-3,.22-5.58.39-8.92.43-5.37.07-10.71.32-16.12.49-4.62.13-9,.25-13.34.37-3.63.18-7.28.33-11,.44.86.57,1.6,1.3,2.17,2.16,2.91-.06,5.83-.06,8.74,0h2.26c5,0,10.37-.3,15.57-.45,11.49-.34,23.17-.7,34.7-1.05,7.32-.19,14.76-.62,21.92-.91l14.68-.61c-.29-.89-.27-1.86.07-2.73Z"/>
      <path class="cls-2" d="m278.37,6.98c.36.41.45.99.25,1.49-.35.76-1.02,1.32-1.83,1.53-1,.12-2.12-.47-3.18-.48-1.48,0-2.95.25-4.43.35-.95.07-1.93,0-2.87.12-.85.09-1.71.12-2.57.08-.39-.03-.77-.03-1.16,0-.36.12-.74.17-1.12.15-1-.19-1.28-2.24-.69-2.92.46-.52,1.57-.34,2.19-.34.89,0,1.77.08,2.66,0,2.14-.1,4.28,0,6.42,0,.91,0,1.8-.22,2.69-.32s1.71-.13,2.57-.18c.42,0,.81.19,1.07.52Z"/>
      <path class="cls-2" d="m291.92,7.17c.06.35.06.71,0,1.06-.06.28-.2.54-.41.73-.58.54-1.41.73-2.17.48-.95-.16-1.92-.16-2.87,0-1.03.15-2.07.13-3.09-.07-.45-.12-.85-.38-1.14-.74-.46-.61-.6-1.37.15-1.81.91-.41,1.93-.56,2.92-.42,1.34.15,2.76-.5,4.15-.72.46-.09.93,0,1.34.22.51.28.91.73,1.12,1.27Z"/>
      <path class="cls-2" d="m299.45,7.36c-.08.29-.2.57-.35.83-.49.94-1.66,1.31-2.6.82-.27-.14-.5-.34-.68-.59-.53-.64-.59-2.27.18-2.72.41-.22.86-.37,1.33-.44,1.11-.09,2.04.25,2.12,2.1Z"/>
    </g>
  </g>
</svg>