<svg id="Layer_2" data-name="Layer 2" xmlns="http://www.w3.org/2000/svg" viewBox="0 0 75.72 11.02">
  <g id="Layer_1-2" data-name="Layer 1">
    <g>
      <path class="cls-2" d="m29.27,4.78c-.22.02-.44.02-.66,0-.22,0-.53.09-.74.1-.41,0-.81.12-1.23.13-1.15,0-2.3.07-3.46.09h-.6v-.11c-.16,0-.32,0-.48,0-.11.01-.22.01-.33,0,0,0-.23.06-.27.06-.06.04-.12.07-.18.09l.05,2.08c.23,0,.47-.08.7-.1h.95l2.84-.07c1.05,0,2.11.31,3.12.31.27,0,.54-.07.77-.2.23-.15.3-.11.38-.22.11-.18.15-.39.12-.6-.06-.66-.47-1.63-.98-1.56Z"/>
      <path class="cls-2" d="m20.1,5.13h-.28c-.06-.02-.11-.02-.17,0-.67,0-1.34.05-2,.12-.24.03-.47.03-.71,0-.42-.05-.85-.08-1.28-.07-.2,0-.33.1-.61,0-.15-.04-.3-.07-.45-.08-.21,0-.32.06-.53.08-.48,0-.95.08-1.43.1-.13,0-.25-.02-.37-.06-.19-.07-.39-.07-.58,0-.16.1-.35.14-.53.11-.33-.04-.67-.04-1,0h-3.22c-.48-.06-.97-.08-1.45-.08-1.16.05-2.32.03-3.47-.07-.52,0-1.76.28-1.91.62s0,.45-.09.65c-.15.47.63,1.26,1.33,1.25l2.22-.11h2.31c.61,0,1.22-.23,1.81-.21h1.8c.31.06.62.06.93,0,.68,0,1.38,0,2.07.06.43,0,.87-.04,1.3-.1,1.19-.05,2.38,0,3.56-.13h.89c.36-.05.73-.03,1.09.05h.06c.12.02.25.02.37,0,.24-.04.48-.04.72,0,0-.66.06-1.46,0-2.13-.07-.02-.13-.02-.2,0-.06,0-.12,0-.18,0Z"/>
      <path class="cls-2" d="m26.4,5.11c-.29.02-.58.02-.87,0-.38,0-1.11-.08-1.49-.06s-.61,0-.87,0h-.44c-.47,0-.95.07-1.42.1-.13,0-.26-.03-.38-.06-.18-.08-.39-.08-.57,0-.16.1-.35.14-.53.11-.33-.05-.67-.05-1,0h-.79c-.21.06-.43.09-.65.1.07.53.11,1.11.15,1.66.18.02.36.08.52.17h0s.08,0,.12,0c.3.13.61,0,.92,0h2.07c.44,0,.88-.03,1.31-.09h3.84c-.18-.64-.15-1.31.08-1.93Z"/>
      <path class="cls-2" d="m45.12,5.68c.12.26.08.56-.1.78-.27.29-.67.41-1.06.33-1.04-.08-2.08-.05-3.11.09-1.12,0-2.29,0-3.41.11-.92-.03-1.83.06-2.72.28-.7.32-1.52.08-1.95-.55-.19-.32-.23-.71-.11-1.07.23-.7,1.24-.79,1.86-.83s1.09.29,1.74.27c.32,0,.64.06,1,.07,1.13,0,2.27,0,3.41.07.53,0,1,.17,1.58.23s1.06-.17,1.59-.14c.27.02,1.1,0,1.28.36Z"/>
      <path class="cls-2" d="m49.02,7.15c-.37,0-1.49,0-1.53-.55,0-.25.11-.49.27-.68.21-.32.45-.62.7-.9.12-.15.28-.27.46-.34.49-.17,1.06.09,1.56.09.86.12,1.71.3,2.54.53.95.14,1.76-.15,2.27.66-.24.23-.56.6-.91.64-1.7.18-3.36.39-5.15.53-.07,0-.14.02-.21.02Z"/>
      <path class="cls-2" d="m60.37,6.8c-.35.03-.7-.05-1-.22-.76-.46-.94-1.81.15-1.93.6-.01,1.21.06,1.79.22.43.06,1.84.38,1.44.94-.57.49-1.26.81-2,.93-.13.03-.25.05-.38.06Z"/>
      <path class="cls-2" d="m68.83,5.36h0c.15,1-1.55,1.77-2.32,1.19-.57-.49-.64-1.35-.15-1.92.02-.03.05-.06.08-.08.64-.39,2.21.03,2.39.81Z"/>
      <path class="cls-1" d="m75.72,5.07c-.07-1.47-9.11-5.66-9.7-5s-.32,10.13.51,10.92c.49.43,9.25-4.61,9.19-5.92Z"/>
    </g>
  </g>
</svg>