<svg xmlns="http://www.w3.org/2000/svg" viewBox="0 0 113.58 74.12"><path d="M7.39,34.5a3.61,3.61,0,0,1,0-.66c0-.23-.14-.53-.18-.74-.07-.4-.22-.79-.28-1.2l-.54-3.44-.42-2.68,0-.26,0-.09c-.25-1.51-.51-3-.81-4.54-.17-.85-.6-2.94-.62-3.14s-.52-2.18-.58-2.5c0-.13-.28-1-.45-1.68-.7.13-1.31.44-2,.56.49,2.2,1,4.41,1.44,6.57.28,1.35.5,2.71.75,4.06l.35,2,.29,1.79c.16.93.29,1.86.44,2.79s-.05,2.12.06,3.12a1.46,1.46,0,0,0,.29.74c.17.21.14.29.25.36a1,1,0,0,0,.62,0C6.6,35.52,7.51,35,7.39,34.5Z"/><path d="M3,3.47a2.42,2.42,0,0,1,.49-.36,3.3,3.3,0,0,1,1-.32l.26,0c.43,0,1-.06,1.54-.08,6.49,0,13,0,19.49-.16,2.27,0,4.52-.09,6.82-.06,4.08.06,8.18,0,12.27,0,1.93,0,3.21-.11,5.79,0,1.12,0,3.24.08,4.34.07l5.13-.1,13.68-.13c1.2,0,2.41,0,3.6,0,2,.05,3.64.1,5.51,0,1.71-.1,3.2-.17,5.1-.12,3.07.07,6.13,0,9.22,0h6.92c.79,0,1.58,0,2.42.08a14.11,14.11,0,0,0,1.45.09,29.93,29.93,0,0,1,3.51.11c.52,0,1.77-.26,1.92-.6s0-.44,0-.65C113.73.8,113,0,112.26,0l-2.21.08c-.77,0-1.55,0-2.32,0-.61,0-1.22.21-1.81.18-.32,0-.64,0-1,0h-.49l-.76,0c-2.88-.12-5.93,0-8.9,0H75c-4.18,0-8.44.1-12.53.13L28.31.6l-8.5.05C16,.66,13.06.75,9.3.62H8.63c-1.13,0-2.27,0-3.57,0a6.93,6.93,0,0,0-2,.41A4.46,4.46,0,0,0,1.3,2.25,6,6,0,0,0,0,6.09a3.47,3.47,0,0,0,2.15.73,9.63,9.63,0,0,1,.05-1.61A2.73,2.73,0,0,1,3,3.47Z"/><path d="M6.72,31.67a7.89,7.89,0,0,1-.09-.86c0-.39-.06-1.12-.12-1.49s-.12-.61-.17-.87l0-.19c0-.12,0-.25-.07-.37-.08-.42-.15-.86-.24-1.37Q4.82,19.76,3.3,13c-.28-1.17-.52-2.36-.76-3.53a12.23,12.23,0,0,1-.23-4.87,2.4,2.4,0,0,1,.91-1.49,3.24,3.24,0,0,1,2-.54c3,0,6.09,0,9.17,0H22c2.08-.07,4.16-.11,6.29-.12A5.23,5.23,0,0,1,27.07.79c-1.67,0-3.33-.07-5-.15l-.14,0-1.15,0c-2.87-.12-5.93,0-8.9,0H6.94A21.55,21.55,0,0,0,4.33.7,4.84,4.84,0,0,0,1.55,2a4.92,4.92,0,0,0-1.4,2.7A9.61,9.61,0,0,0,.06,7.43,19.84,19.84,0,0,0,.49,10L1,12.42c.89,4.07,1.86,8.19,2.55,12.21.21,1.14.38,2.28.57,3.42l.23,1.44.34,2.35A3.2,3.2,0,0,1,6.72,31.67Z"/><path d="M7.85,50.4a.68.68,0,0,1-.78-.1,1.1,1.1,0,0,1-.4-1,13.37,13.37,0,0,0-.31-3.08c-.11-1.12-.16-2.28-.38-3.38a8.91,8.91,0,0,0-.51-2.68,1.57,1.57,0,0,1,.36-2,1.31,1.31,0,0,1,1-.22c.72.16.91,1.16,1,1.78s-.17,1.12-.1,1.77c0,.31,0,.64,0,1,.07,1.14.17,2.27.2,3.41,0,.53-.09,1.06-.11,1.59s.25,1.06.25,1.59C8.13,49.37,8.2,50.2,7.85,50.4Z"/><path d="M6.61,54.33c0-.37-.06-1.48.47-1.56a1.13,1.13,0,0,1,.69.24,8.51,8.51,0,0,1,.93.64,1.33,1.33,0,0,1,.37.45c.19.48,0,1.07,0,1.56a17.7,17.7,0,0,1-.4,2.65c-.1,1,.22,1.76-.57,2.29-.24-.22-.62-.53-.67-.88-.28-1.7-.47-3.43-.77-5.13A1.22,1.22,0,0,1,6.61,54.33Z"/><path d="M7.42,65.68a1.76,1.76,0,0,1,.19-1c.43-.77,1.77-1,1.94.09a6.47,6.47,0,0,1-.17,1.8c-.05.43-.33,1.85-.9,1.47a4.19,4.19,0,0,1-1-1.93A3.07,3.07,0,0,1,7.42,65.68Z"/><path d="M9.09,74.1H9c-1,.18-1.8-1.5-1.24-2.29a1.36,1.36,0,0,1,2-.12C10.24,72.31,9.86,73.89,9.09,74.1Z"/></svg>