<svg xmlns="http://www.w3.org/2000/svg" viewBox="0 0 63.12 76.58"><path d="M39.65,75.11a3.61,3.61,0,0,1,.66,0c.23,0,.53-.14.74-.18.4-.07.8-.2,1.2-.26l3.45-.49L47.39,74l.15,0h.05c.87-.12,1.75-.25,2.62-.39.49-.08,1.7-.3,1.81-.3s1.27-.26,1.45-.29l1-.25c-.12-.71-.34-1.34-.44-2l-3.8.71-2.35.36-2.26.33-2.8.4c-1,.08-2.12-.08-3.12,0a1.54,1.54,0,0,0-.74.27c-.22.17-.29.14-.37.25a1,1,0,0,0,0,.61C38.64,74.3,39.15,75.22,39.65,75.11Z"/><path d="M60.54,68.43a9,9,0,0,0,.22-1.57,1,1,0,0,0,0-.19,7.77,7.77,0,0,0,0-1c.11-3.74.24-7.47.28-11.21,0-1.31,0-2.6.1-3.92.15-2.34.22-4.7.32-7,0-1.11,0-1.85.1-3.33,0-.64.16-1.86.18-2.49,0-1.18,0-1.78,0-3L62,26.88c0-.69.08-1.38.14-2.07a22.55,22.55,0,0,0,.12-3.16,19.18,19.18,0,0,1,0-2.94c.15-1.76.14-3.52.2-5.3,0-1.36.1-2.65.14-3.92,0-.83.1-1.64.17-2.51a11.89,11.89,0,0,0,.14-1.44A30.66,30.66,0,0,1,63.12,2c0-.52-.2-1.78-.53-1.94s-.45,0-.65-.06c-.46-.2-1.29.55-1.31,1.25V3.49c0,.77-.09,1.55-.08,2.31s.17,1.23.12,1.83c0,.32,0,.63,0,1,0,.16,0,.32,0,.48l0,.25c0,.11,0,.23,0,.34-.18,1.65-.12,3.41-.19,5.12-.15,3.77-.27,7.61-.46,11.4-.12,2.4-.09,4.85-.16,7.21-.18,6.54-.42,13.08-.56,19.62l-.15,4.89c-.07,2.21-.05,3.88-.26,6,0,.1,0,.22,0,.33h0v0c-.05.64-.08,1.34-.1,2a3.45,3.45,0,0,1-1,2.93,15.29,15.29,0,0,0,1,1.92,4.39,4.39,0,0,0,1-1A5.87,5.87,0,0,0,60.54,68.43Z"/><path d="M42.48,74.48a5.27,5.27,0,0,1,.87-.07c.39,0,1.12,0,1.49-.11l.87-.15.46-.09.79-.13c2.61-.42,5.17-.82,7.81-1.31A18.31,18.31,0,0,0,57,72.07a5,5,0,0,0,3-2.32,8.66,8.66,0,0,0,.7-3.36c.15-1.77.14-3.52.2-5.3.05-1.52.11-3,.16-4.39,0-1.19,0-2.39,0-3.61a6.33,6.33,0,0,1-1.69.63c0,1-.14,1.92-.27,2.87l0,.08c0,.22,0,.44,0,.66-.18,1.65-.12,3.41-.19,5.12,0,.94-.07,1.89-.11,2.84a12.83,12.83,0,0,1-.23,2.62,2.77,2.77,0,0,1-1.24,1.67,6.7,6.7,0,0,1-2.31.88c-1.08.24-2.3.41-3.48.64s-2.36.42-3.52.6L46,72l-1.27.18-2.35.31A3.12,3.12,0,0,1,42.48,74.48Z"/><path d="M23.74,75.31a.7.7,0,0,1,.11-.78,1.17,1.17,0,0,1,1-.38A13.4,13.4,0,0,0,28,73.9c1.12-.1,2.28-.12,3.39-.32a9.32,9.32,0,0,0,2.68-.48,1.56,1.56,0,0,1,2,.4,1.31,1.31,0,0,1,.21,1c-.17.71-1.18.89-1.8,1s-1.12-.2-1.76-.14c-.32,0-.64,0-1,0-1.14.06-2.28.12-3.42.14-.54,0-1.06-.1-1.59-.13s-1.06.22-1.59.21C24.76,75.61,23.93,75.66,23.74,75.31Z"/><path d="M19.85,74c.37,0,1.47,0,1.54.51a1.1,1.1,0,0,1-.25.68,7.74,7.74,0,0,1-.67.92,1.23,1.23,0,0,1-.46.36c-.49.18-1.07-.07-1.56-.06a16.52,16.52,0,0,1-2.64-.49c-1-.12-1.77.17-2.27-.64.23-.23.55-.6.9-.64,1.71-.21,3.44-.36,5.15-.61Z"/><path d="M8.5,74.38a1.75,1.75,0,0,1,1,.24c.75.46.92,1.82-.18,1.92a6.14,6.14,0,0,1-1.79-.25c-.43-.06-1.84-.41-1.42-1a4.18,4.18,0,0,1,2-.89A2,2,0,0,1,8.5,74.38Z"/><path d="M0,75.56V75.5c-.1-1,1.62-1.7,2.37-1.09a1.37,1.37,0,0,1,0,2C1.72,76.83.16,76.35,0,75.56Z"/></svg>