<svg xmlns="http://www.w3.org/2000/svg" viewBox="0 0 111.73 57.01"><path d="M108.8,18a3.72,3.72,0,0,1,.2-.62c.06-.21,0-.53.09-.73.08-.4.08-.81.18-1.2.28-1.11.54-2.22.89-3.31l.7-2.22.07-.22,0-.07a12.71,12.71,0,0,0,.78-4.21,5.92,5.92,0,0,0-.34-1.91,5.1,5.1,0,0,0-.72-1.31,3.88,3.88,0,0,0-1-1A5.63,5.63,0,0,0,108.41.6a7.53,7.53,0,0,0-1.67-.34c-.13.7-.09,1.37-.23,2.07a4.2,4.2,0,0,1,2.11.84A2.8,2.8,0,0,1,109.56,5a9,9,0,0,1-.39,3.13l-1,3.18c-.29.91-.52,1.84-.76,2.76s-.86,2-1.11,3a1.59,1.59,0,0,0,0,.81c.09.26,0,.32.12.42a.89.89,0,0,0,.56.25C107.7,18.68,108.74,18.5,108.8,18Z"/><path d="M96.68.05l-2,0h-.27c-.42,0-.91,0-1.41,0-5.54.05-11.1.07-16.64.18-1.94,0-3.86.1-5.83.07-3.48-.05-7,0-10.48,0-1.64,0-2.74.11-4.94,0-1,0-2.77-.08-3.71-.06L47,.38,35.29.53c-1,0-2,0-3.07-.05-1.67,0-3.11-.09-4.71,0s-2.73.17-4.36.13c-2.62-.07-5.23,0-7.87,0L9.36.66c-.79,0-1.58,0-2.42-.07A11.85,11.85,0,0,0,5.49.51,29.86,29.86,0,0,1,2,.4C1.46.38.21.66.06,1s0,.45,0,.65c-.18.46.59,1.27,1.29,1.26l2.22-.08c.77,0,1.54,0,2.31,0,.61,0,1.22-.22,1.82-.2.31,0,.63,0,.95,0H9.1l.71,0c2.45.12,5.06,0,7.6,0,5.61,0,11.31,0,16.94,0,3.57,0,7.21-.11,10.7-.14l29.16-.25,7.27-.06c3.28,0,5.75-.11,9,0H91c1,0,2,0,3,0,2-.06,3.86-.08,5.88,0A4.6,4.6,0,0,0,100.56,0c-.52,0-1,0-1.59,0C98.24.05,97.46.06,96.68.05Z"/><path d="M109.2,15.17a5.68,5.68,0,0,1,.26-.81c.11-.36.38-1,.47-1.39s.15-.59.21-.84l0-.19.09-.33.32-1.12c.53-1.84,1.31-3.87.87-6.25a4.77,4.77,0,0,0-2-3,7,7,0,0,0-3.22-1c-1.11-.12-2.18-.11-3.19-.15-1.66,0-3.11-.09-4.7,0S95.62.23,94,.19c-2.62-.07-5.23,0-7.87,0L79.6.23c-1.77.07-3.55.11-5.36.13a5.53,5.53,0,0,1,1,1.66c1.43,0,2.85.06,4.27.14l.12,0,1,0c2.46.12,5.06,0,7.61,0,5.58,0,11.35-.07,16.89,0,1.68.07,3.24.43,3.92,1.52s.56,2.77.12,4.35l-1.26,4.17-.63,2.33A3.17,3.17,0,0,1,109.2,15.17Z"/><path d="M105.47,33.37a.73.73,0,0,1-.77-.2,1.15,1.15,0,0,1-.23-1.1,17.91,17.91,0,0,0,.22-3.12c.1-1.14.29-2.3.36-3.43a11.69,11.69,0,0,0,.18-2.76,1.57,1.57,0,0,1,.92-1.83,1.33,1.33,0,0,1,1.07.1c.62.37.54,1.36.46,2s-.49,1-.57,1.65c0,.31-.16.61-.21.92-.22,1.11-.37,2.22-.54,3.34-.09.52-.3,1-.41,1.53s.07,1.08,0,1.6C105.9,32.4,105.83,33.22,105.47,33.37Z"/><path d="M103.82,37.17c0-.38.06-1.51.6-1.53a1.07,1.07,0,0,1,.66.31,8.62,8.62,0,0,1,.87.73,1.14,1.14,0,0,1,.34.47c.15.48-.12,1-.14,1.53a21.2,21.2,0,0,1-.53,2.61c-.14,1,.19,1.74-.6,2.27-.24-.22-.62-.54-.67-.89-.24-1.72-.38-3.48-.52-5.24A2.35,2.35,0,0,1,103.82,37.17Z"/><path d="M104.5,48.7a1.66,1.66,0,0,1,.14-1c.4-.8,1.73-1.06,1.93,0a7.1,7.1,0,0,1,0,1.78c0,.43-.19,1.87-.79,1.53a4,4,0,0,1-1.13-1.86A2.86,2.86,0,0,1,104.5,48.7Z"/><path d="M107.07,56.94l0,0c-1,.35-2-1.24-1.55-2.1a1.35,1.35,0,0,1,2-.38A1.87,1.87,0,0,1,107.07,56.94Z"/></svg>