<svg xmlns="http://www.w3.org/2000/svg" viewBox="0 0 119.98 67.09"><path d="M80.39,62.15a3.69,3.69,0,0,1-.66,0c-.22,0-.53.1-.74.11-.41,0-.81.14-1.22.16-1.15.08-2.31.12-3.46.16l-2.68.09h-.34l-4.54.16-3.14.13c-.32,0-2.21.13-2.53.14-.13,0-1,.1-1.7.15,0,.71.19,1.36.18,2.08L66.23,65,77,64.54c1,0,2.11.26,3.13.24a1.53,1.53,0,0,0,.76-.22c.23-.15.3-.12.38-.22a1,1,0,0,0,.1-.61C81.33,63,80.9,62.07,80.39,62.15Z"/><path d="M47.91,63.55l-2.36.09h-.31c-.49,0-1.06,0-1.63.07-6.42.26-12.85.48-19.26.8-2.25.11-4.47.23-6.75.28L11.55,65l-3,.1a12.6,12.6,0,0,1-2.79-.14,4,4,0,0,1-1.86-.82,3.82,3.82,0,0,1-1.21-2.15,17.64,17.64,0,0,1-.32-4c-.06-2-.09-3-.14-5.06-.09-4.5-.12-9-.12-13.52,0-1.18,0-2.37.09-3.55.07-1.93.14-3.6.07-5.44s-.1-3.16,0-5.05c.15-3,.15-6,.24-9.1.09-2.36.17-4.6.24-6.83,0-.79.1-1.58.18-2.41A12.09,12.09,0,0,0,3,5.54,28.72,28.72,0,0,1,3.32,2C3.37,1.53,3.14.27,2.81.1S2.37.12,2.17,0C1.71-.17.87.56.84,1.26l0,2.22c0,.77-.1,1.55-.1,2.31S.88,7,.83,7.62c0,.32,0,.63,0,1,0,.16,0,.32,0,.49s0,.5-.07.76c-.23,2.83-.21,5.86-.3,8.8C.23,25.12.12,31.73,0,38.25,0,42.4.07,46.61.11,50.67l.13,8.47a11.92,11.92,0,0,0,.87,4.48,5.71,5.71,0,0,0,1.49,2,5.58,5.58,0,0,0,2.23,1.14A15.38,15.38,0,0,0,9.31,67l4.22-.17L22,66.53l8.4-.32c3.8-.14,6.66-.33,10.39-.32h.66c1.1,0,2.29,0,3.48-.1,2.34-.13,4.46-.21,6.8-.26a4.37,4.37,0,0,0,.7-2.16c-.61,0-1.17,0-1.85.08C49.71,63.49,48.81,63.53,47.91,63.55Z"/><path d="M77.52,62.54a6.11,6.11,0,0,1-.86,0c-.39,0-1.11-.06-1.49,0l-.87.07-.2,0-.38,0-1.36.07-13.52.58c-1.18,0-2.37.05-3.55.06-1.94,0-3.61,0-5.45.18s-3.15.27-5,.29c-3,0-6,.2-9.11.31l-7.54.25c-2,.14-4.11.24-6.21.33a5.48,5.48,0,0,1,1.25,1.62c1.65,0,3.29,0,4.94,0h1.28c2.84,0,5.86-.2,8.8-.3l19.6-.63c4.14-.11,8.34-.37,12.39-.53l7.29-.28A3.14,3.14,0,0,1,77.52,62.54Z"/><path d="M96.25,62.72a.71.71,0,0,1-.13.78,1.12,1.12,0,0,1-1.05.35A14.69,14.69,0,0,0,92,64c-1.13.06-2.3,0-3.41.18a9.9,9.9,0,0,0-2.72.34,1.57,1.57,0,0,1-2-.51A1.31,1.31,0,0,1,83.74,63c.22-.7,1.23-.81,1.85-.86s1.1.26,1.75.23c.32,0,.64,0,1,0,1.13,0,2.27,0,3.4,0,.54,0,1.06.14,1.59.19s1.06-.19,1.59-.18C95.24,62.39,96.06,62.37,96.25,62.72Z"/><path d="M100.13,64.1c-.37,0-1.48,0-1.54-.51a1.14,1.14,0,0,1,.26-.69,8.61,8.61,0,0,1,.68-.91,1.13,1.13,0,0,1,.46-.35c.48-.18,1.06.07,1.55.06a19.28,19.28,0,0,1,2.64.47c.95.12,1.75-.19,2.27.61-.23.23-.54.61-.89.66l-5.17.64Z"/><path d="M111.53,63.51a1.75,1.75,0,0,1-1-.2c-.77-.44-1-1.78.11-1.93a6.52,6.52,0,0,1,1.8.18c.42,0,1.85.34,1.45.91a4.13,4.13,0,0,1-1.93,1Z"/><path d="M120,61.89V62c.18,1-1.51,1.79-2.29,1.23a1.35,1.35,0,0,1-.11-2C118.17,60.73,119.75,61.11,120,61.89Z"/></svg>