<svg xmlns="http://www.w3.org/2000/svg" viewBox="0 0 71.32 99.14"><path d="M48.87,69.5l-.15.13h0Z" fill="#010101"/><path d="M71.21,53.51a2.6,2.6,0,0,0-1.95-.62c-.08-.36-.15-.72-.23-1.08a.29.29,0,0,1,0,.09c-.1-.5-.2-1-.31-1.52l0,.07v0C65,34.81,65.07,15.58,52.48,4,36.84-6.83,16.72,6.39,8.2,20.45l-.06.09,0-.06C2.91,29.29-.37,39.84.45,50.17a1.61,1.61,0,0,0,0,.5c-2.25-.19,3.56,3.87,11.34,8.66A.91.91,0,0,0,12,60.39l0,.32s0-.08,0-.12C14.33,88.33,9,98.67,42.7,98.91c13.31,1.43,23.58-3.84,23.06-18.5.16-2.27.38-27.85-4.25-18.81.6,11.45,5.7,33.53-11.44,33.89-9.34.28-19.35.33-28.22-2.83-9.39-3.3-5-25.24-8.38-32.33,2.34,1.42,4.8,2.87,7.25,4.29-1.65,2.79-.77,6.76-1.15,9.92C17.78,86.92,29.28,93.19,40.2,93c10.39,1.3,16.4-7,17.86-16.19,1.44-1,2.2-2,.25-2.11a26.08,26.08,0,0,0-1.05-10.07h0c-.15-.53-.24-1.24-.38-1.92a54.8,54.8,0,0,1,13.58-7.38A1.41,1.41,0,0,0,71.21,53.51ZM26.6,67.94a.78.78,0,0,0-.6.84v-.07a.41.41,0,0,0,0,.11h0c.06,2.05.19,4.1.36,6.15-1.62-.56-3.2-1.13-4.72-1.68,0-2.6.27-5.18.4-7.48a1.09,1.09,0,0,0,.23-.3C23.75,66.35,25.2,67.17,26.6,67.94Zm13.85,10.6a49.11,49.11,0,0,1-5.45-1,9.15,9.15,0,0,1,0-1.71c-.24-.7,0-2.46-.19-3.6,2.66,1.29,4.47,2,4.85,1.79a6,6,0,0,0,1.12,0A18,18,0,0,0,40.45,78.54Zm1.62-4.65a10.93,10.93,0,0,0,3.94-2,27.83,27.83,0,0,0-.1,6.88,32,32,0,0,1-3.53-.06l-.12-2.46C42.13,75.67,42.27,74.61,42.07,73.89Zm-8.81,3.22c-1.73-.47-3.45-1-5.13-1.55a23.06,23.06,0,0,1-.4-4.22,13.22,13.22,0,0,0-.22-2.9c2.11,1.15,4.08,2.2,5.8,3.07C33.21,73.35,33.21,75.22,33.26,77.11Zm.05,1.64c.13,3.52.38,7.08.51,10.56a27.37,27.37,0,0,1-4.57-1.55c.3-2-.32-6.54-.86-10.35C30,77.89,31.66,78.33,33.31,78.75ZM21.66,75.07q2.4,1,4.88,1.78c.31,3.36.68,6.72,1,10.08l-1.34-.73C22.77,83.54,21.8,79.39,21.66,75.07ZM35.41,89.65c.53-1.9,0-7-.28-10.45l2.64.65h-.05l.07,0h0l.11,0h0a24.26,24.26,0,0,0,2.68.35,81.56,81.56,0,0,1,.55,8.31c.21,1.29,2.11.76,1.75-.47-.14-2.57-.26-5.14-.38-7.71l.75,0c.94,0,1.88.05,2.83.05.22,2.55.49,4.9.49,6.1,2.88,3.09,1.58-3.66,1.3-6.13A22.41,22.41,0,0,0,51.1,80a16.57,16.57,0,0,1-.06,4.1,3.58,3.58,0,0,0,.72.76C48.05,89.19,42,90.81,35.41,89.65Zm17.52-6.31a30.39,30.39,0,0,0,0-3.8,7,7,0,0,0,.77-.27,10.84,10.84,0,0,0,1.24-.56A15.63,15.63,0,0,1,52.93,83.34Zm2.25-13.42a25,25,0,0,1,.15,6.48,21.15,21.15,0,0,1-2.55,1.11c0-.16,0-.29,0-.39-.59-2.79.51-7.69-1.25-9.64-1.59.68-1,6-.6,10.58a23.2,23.2,0,0,1-3.31.6c-.18-2.55.68-5.72-.35-7.76l.73-.64.71-.63q2.56-2.46,5.31-4.7C54.52,66.65,55.32,68.5,55.18,69.92Zm-15.62.8A344.94,344.94,0,0,1,2.94,51.35l-.52-.18a1.17,1.17,0,0,0-.35-.91,10.8,10.8,0,0,1-.22-1.6A51.25,51.25,0,0,1,3.18,37l0,.11A52.52,52.52,0,0,1,9.61,21.39h0l1.94-2.85,0,.05a53.1,53.1,0,0,1,7-7.63l0,0,.08-.07h0A42.86,42.86,0,0,1,27.11,5h0l.1,0,0,0a27.46,27.46,0,0,1,7-2.42,39.08,39.08,0,0,1,4.7-.66h0a26.94,26.94,0,0,1,3.24,0H42C49,2.12,54.66,7.27,57.57,13.41c3.2,6.63,4.48,14,6.16,21.09v0l0-.13c0,.15.07.3.1.46v0c.16.77.32,1.53.47,2.29v0l0,.12v0l0,.13v0l0,.12h0c1,5.27,1.74,10.57,2.85,15.82-3,.9-6.72,3.22-8.44,4.2C51.65,60.6,47.27,69.81,39.56,70.72Z" fill="#010101"/><path d="M27.74,71.32v0a.28.28,0,0,1,0,.09Z" fill="#010101"/><path d="M35,75.83h0Z" fill="#010101"/><path d="M42.26,76.24v0h0Z" fill="#010101"/><path d="M33.59,61.87c-.84-1.87.55-4.45.35-6.58a1,1,0,0,1,1.93.26C35.3,57.29,36.52,62.66,33.59,61.87Z" fill="#010101"/><path d="M39.38,62.58a.88.88,0,0,1,0-1.42,12.34,12.34,0,0,0,.36-2.58v0a2.64,2.64,0,0,1,0-.29.53.53,0,0,0,0,.13c0-.12,0-.24,0-.36a.53.53,0,0,1,0,.13c.35-1.22-.57-3.66,1.15-3.93,1,0,1.1,1,1,1.8v0a.66.66,0,0,0,0,.14v.13c-.48,2,.29,5.56-1.94,6.42H40A.89.89,0,0,1,39.38,62.58Z" fill="#010101"/><path d="M60.44,51.9c4.24-6,1.93-15.28-2.88-20.48a17.21,17.21,0,0,0,1.88-2.63c.48-1.87-2.3-2.36-2.76-.59C55.43,31.84,45.41,37.4,44,40.93l-.24.16a14.76,14.76,0,0,0,2.43,10.73c.07.11.15.2.22.3a17.63,17.63,0,0,0-2.47.56c-1.86,2,1.89,1.42,3,1.25,4.87-.21,9.79.14,14.64.41a1.12,1.12,0,0,0,1.25-.94A2.44,2.44,0,0,0,60.44,51.9Z" fill="#010101"/><path d="M27.87,31.89c-2.84-2.62-5.08-6-7.42-8.86-1.42.68-1,2.37.29,4.42a3.58,3.58,0,0,0-2.83.3c-9.41,2.46-10,17.24-3,22.9-.93.18-1.85.38-2.76.64-2.29,2.6,4.22.78,5.38.92h.29a75.7,75.7,0,0,1,14,.62,1.08,1.08,0,0,0,1.21-.92,1.91,1.91,0,0,0-1.61-1.36c2.07-2.52,2.23-6,1.78-9.19C37.18,38.89,29.72,34,27.87,31.89Z" fill="#010101"/></svg>