<svg xmlns="http://www.w3.org/2000/svg" viewBox="0 0 81.48 94.44"><path d="M51.74,69.69h0Z" fill="#010101"/><path d="M45.06,5.45h0l-.19,0Z" fill="#010101"/><path d="M65.83,79.53h0v.2A1.48,1.48,0,0,0,65.83,79.53Z" fill="#010101"/><path d="M66.68,65.09C89.17,47.1,88.32,9.55,48.19,2.94,35-4.79,17,4,8.08,14.85-6.29,31.3,0,54.22,15.2,66.37c.83,5.45,1.28,11,2.71,16.3a5.07,5.07,0,0,0,.65.48C19,89.45,26.87,94.5,33,94.44c10.63-1.11,32.59,3.1,34.37-11.5a1.83,1.83,0,0,0-1.45-1.81c0-.57-.11-1.13-.11-1.59l0-.46v0c0-.07,0-.14,0-.21V79A35.44,35.44,0,0,1,66.68,65.09Zm-64.3-26a32.79,32.79,0,0,1,1.79-12.5l0,.09a.88.88,0,0,0,.05-.15v.05A35.74,35.74,0,0,1,14.36,11.46,38.08,38.08,0,0,1,27,4.13a34.42,34.42,0,0,1,9.68-1.95c.23,3.35,6,2.13,8.37,3.27L47.64,6c.06,1.62,2.65,2.86,2.57.58a63.25,63.25,0,0,1,7.13,2.09,40,40,0,0,1,4.74,1.95l-.06,0,.17.09,0,0C90.65,24.26,78.35,62.16,51.75,69.68l-.15.06.13,0a39.12,39.12,0,0,1-10.21,2.09C22.8,73.16,3.79,58.07,2.38,39.08ZM50.74,77.91a15.52,15.52,0,0,0,4.77-1.57c-.5,1.52-1.67,3-4.84,4A16.08,16.08,0,0,0,50.74,77.91Zm-.1-2.14c-.06-.94-.1-1.73-.08-2.14a1,1,0,0,0-.13-.46,44.61,44.61,0,0,0,6.77-2.35c-1,.78-1.14,1.93-1.27,3.2a.65.65,0,0,0-.19,0A35.11,35.11,0,0,1,50.64,75.77Zm-6,2.91c1.2-.09,2.55-.22,3.91-.41,0,.87,0,1.75.08,2.62L48,81c-1,.17-2,.38-3,.59A8.51,8.51,0,0,0,44.68,78.68ZM31.53,74.06a9.71,9.71,0,0,0,.18,2.24,17.93,17.93,0,0,1-4.07-1.12,18.41,18.41,0,0,1-.49-2.27A35.66,35.66,0,0,0,31.53,74.06Zm5.33,2.27c0,.12,0,.25.08.37-1,0-2-.06-3-.13a5.55,5.55,0,0,0-.67-2.21c1.09.15,2.19.26,3.31.32a3,3,0,0,0,.25,1.72Zm-4.72,2c.23.94.49,1.88.68,2.76a1,1,0,0,0,1.84-.64,6,6,0,0,1-.45-1.91c1.09.09,2.18.15,3.18.19a25.46,25.46,0,0,0,.86,2.86c2.14,1.62,1.92-.44,1.3-2.78l2.14.06.8,0a13.23,13.23,0,0,0,.74,2.74,4.6,4.6,0,0,0,.46.33c-3.42.69-6.89,1.2-10.21,0a7.36,7.36,0,0,1-4.94-4.22A21.69,21.69,0,0,0,32.14,78.31Zm9.92-3.44c.06.67.11,1.34.17,2A32.7,32.7,0,0,1,39,76.74c-.27-.86-.5-1.59-.6-2,1.2,0,2.38-.06,3.53-.15A1.65,1.65,0,0,0,42.06,74.87Zm2.2,1.93a12,12,0,0,1-.43-2.42c1.66-.19,3.27-.45,4.84-.79,0,.88-.06,1.76-.07,2.64A35.31,35.31,0,0,1,44.26,76.8Zm4.41-3v-.19h0A.62.62,0,0,0,48.67,73.77ZM59.13,88.33c-11.59,1.45-27.28,6.41-36.74-2.5h0c-.91-.57-1.51-2.38-2.38-3.19.41-2.48-2-9.86-1.8-11.27a10.86,10.86,0,0,1-.39-3.07,37.88,37.88,0,0,0,7.4,3.9C24.22,79,30,85.5,37,85.65c7.39-.89,18.1-1.21,21.64-8.92.39-1.77,1.77-5.64-.72-6.22a42.24,42.24,0,0,0,5.91-3.31c-1.05,5.4-1.48,14.22-1.13,15.24a1.57,1.57,0,0,0,.66,1.3C62.75,85.56,62.2,87.71,59.13,88.33Z" fill="#010101"/><path d="M33.31,81.77l.17.06h0Z" fill="#010101"/><path d="M50.56,73.52v.11s0,.05,0,.09A.67.67,0,0,0,50.56,73.52Z" fill="#010101"/><path d="M35.47,66.71a1,1,0,0,1-.81-1.18c-.21-1.78,2.12-3.14,3.38-4.09,3.09-.07.09,3.61-1.18,4.25C36.47,66.13,36.17,66.83,35.47,66.71Z" fill="#010101"/><path d="M46.67,67c-.48-.34-.92-.73-1.42-1l.13.09c-.84-.65-2.5-1.19-2-2.54a1,1,0,0,1,.36-1.6c1.52-.31,2.38,1.74,3.56,2.44l0,0,.11.1h0C49.2,65,48.61,67.84,46.67,67Z" fill="#010101"/><path d="M24.47,60.66C7.22,58.58,7.54,31.66,26,32.59c6.36-.82,9.73,5,11.93,10C44.43,52.43,34.51,61.59,24.47,60.66Z" fill="#010101"/><path d="M55.64,60.84c-11-.5-14.2-16.94-5.57-22.66,1-3.18,6.16-1.49,8.81-2C77.6,36.09,71.72,62.26,55.64,60.84Z" fill="#010101"/></svg>