<svg id="Layer_2" data-name="Layer 2" xmlns="http://www.w3.org/2000/svg" viewBox="0 0 191.88 169.91">
  <g id="Layer_1-2" data-name="Layer 1">
    <path class="cls-1" d="m180.49,147c-.18-.19-.47-.26-.71-.15-.36.09-.75.09-1.11,0-.21-.41-.44-1-.72-1.67-.22-.42-.32-.9-.3-1.37.96-.14,1.93.24,2.54,1,.43.36.84.75,1.22,1.16.5.54,1.04,1.03,1.62,1.47.27.2.7.12,1.27-.25.58-.38.96-1,1.06-1.68.07-.21-.18-.63-.76-1.27-.41-.42-.76-.88-1.07-1.37.14-.41.29-.61.46-.61.34-.01.67-.04,1-.1.31-.17.53-.47.61-.81l.2-.61c.87.28,1.67.74,2.34,1.36,1.22.92,1.86,1.61,1.93,2.08.75.47,1.29.54,1.63.2s.2-.78-.41-1.32-1.09-.89-1-1.26-.2-.83-.81-1.37c-1.29-1.22-2.21-1.69-2.75-1.42-.59.13-1.1.49-1.42,1-.41.54-1.04.86-1.72.86-.43.11-.87.16-1.32.16-.75,0-1-.43-.81-1.37.46-.45.81-1.01,1-1.63.18-.58.55-1.09,1.06-1.42.81-.41,1.2-.73,1.17-1-.17-.47-.43-.9-.77-1.26-.62-.55-1.54-.57-2.18-.05-.84.51-1.33.8-1.47.86-.48.15-.97.27-1.47.36-.24,0-.36-.33-.36-1,.34-.34.58-.46.71-.36s.27-.05.41-.45c.18-.14.31-.33.37-.54.11-.3.27-.57.47-.81.81-.1,1.11-.25.92-.46s-.51-.59-1-1.14c-.28-.3-.62-.53-1-.67-.6-.34-1.02-.91-1.17-1.58-.08-.49-.38-.91-.82-1.13-.53-.3-1.04-.63-1.53-1-.38-.48-.71-1-1-1.54-.27-.49-.66-.91-1.12-1.23-.54-.48-1.05-.99-1.53-1.53-.44-.49-1.13-.66-1.74-.42l-.09,1.33c-.09.38-.47.63-.86.56-.34,0-.67-.06-1-.15-.47.07-.74-.05-.81-.36-.07-.31-.34-.42-.82-.36l-.1-.2c-.07-.14-.14-.19-.21-.16s-.13,0-.2-.15c-.09-.16-.24-.27-.41-.31-.11-.64.02-1.29.35-1.84l.76-1c.33-.34.32-.63-.06-.87-.52-.36-1.01-.75-1.48-1.18-.48-1-.9-1.21-1.27-.77-.44.5-1.03.85-1.68,1-.92-.73-1.31-1.94-1-3.07.36-.42.32-1.05-.09-1.41-.05-.05-.11-.09-.17-.12-.51-.47-1.27-.56-1.88-.21-1.04.24-2.12-.09-2.85-.86-.81-.62-1.49-1.4-2-2.28-.06-.5-.26-.97-.56-1.37-.31-.4-.5-.87-.56-1.37-.27-.87-.7-1.21-1.27-1-.64.19-1.33,0-1.78-.5-.61-.38-1.17-.82-1.68-1.32-.67-.61-1.06-.88-1.17-.81-.87-.4-1.06-.86-.56-1.37.41-.31.68-.77.76-1.27.21-.61-.17-.84-1.11-.71-.46.07-.9.2-1.32.41-1.29-.88-1.26-1.82.09-2.84.47-.27.99-.45,1.53-.51.34,0,.44-.31.3-.92l-.19-.37c-.05-.43-.14-.86-.26-1.27-.12-.41-.51-.61-1.18-.59-.41-.14-.71-.57-.89-1.27-.12-.61-.48-1.14-1-1.48l-.62-.48c-.26-.16-.54-.29-.83-.38-.18-.53.07-1.12.59-1.35-.02-.7-.4-1.33-1-1.68-.4-.23-.76-.52-1.07-.86-.47-.29-1.03-.42-1.58-.35-.36.1-.86-.12-1.47-.66-.33-.51-.84-.88-1.42-1.06-.43-.08-.76-.43-.81-.86-.32-.56-.46-1.19-.41-1.83.08-.41.04-.83-.11-1.22-.24-.4-.55-.76-.91-1.06-.48-.44-1.11-.67-1.76-.64-.15-.18-.35-.3-.58-.35-.32-.09-.44-.24-.36-.45,0-.82-.31-1.33-.76-1.52s-1.39-.62-2.79-1.27c-.95-.72-1.76-1.6-2.39-2.61l-.12-.39c.93-.64,1.88-1.28,2.86-1.91.37-.25.72-.53,1.05-.82.34-.29.69-.56,1.06-.81.77-.81,1.67-1.49,2.66-2,.92-.4,1.64-1.15,2-2.08-.07-.19.17-.49.71-.87.34-.21.64-.47.9-.77,1.02-.41,1.94-1.03,2.71-1.81.14-.59.31-.92.51-1,.35-.13.68-.29,1-.47.46-.31.86-.68,1.21-1.11.3-.38.68-.69,1.11-.91.4-.45.57-.78.51-1,.25-.71.78-1.28,1.47-1.59.87-.51,1.67-1.14,2.36-1.87.4-.45.78-.84,1.11-1.16l1-1c.48-.33.91-.74,1.26-1.2.4-.52.86-.99,1.37-1.4.53-.44,1-.94,1.41-1.5.41-.56.88-1.06,1.42-1.5.45-.37.87-.77,1.26-1.2.38-.44.8-.85,1.26-1.21.94-.66,1.83-1.4,2.66-2.21.71-.71,1.57-1.54,2.58-2.51.76-.82,1.35-1.78,1.74-2.82.43-1.1,1.05-2.12,1.84-3,.71-.72,1.22-1.61,1.49-2.58.19-1.09.23-2.21.12-3.31.18-.66.58-1.25,1.13-1.65.55-.41.95-.99,1.12-1.65.1-.38.15-.78.13-1.18.05-.48-.04-.96-.27-1.39-.51-.61-.87-1-1.06-1.31-.22-.5-.28-1.05-.16-1.58-.12-.4-.56-1.46-1.31-3.19-1-2.09-2.35-3.99-4-5.62-.42-.51-.88-1-1.35-1.46-.48-.46-.92-.95-1.34-1.46-.32-.48-.8-.84-1.36-1-.57-.04-1.13-.18-1.64-.43-.42-.27-.79-.61-1.11-1-.45-.45-.97-.83-1.53-1.13l-1.17-.62-1.77-.38c-.79-.61-1.74-.96-2.74-1-.57.04-1.14.16-1.68.36-.43.19-.91.28-1.38.26-.89.57-1.87.99-2.9,1.23-.44-.07-.87-.22-1.27-.43-.53-.22-1.11-.26-1.67-.13-.32.02-.63.06-.94.12-.33.07-.66.12-1,.13l-1.19.37c-.52.07-1.03.18-1.54.31-.53.21-1.03.47-1.51.78-1.04.6-2.04,1.27-3,2-.84.64-1.76,1.28-2.76,1.91-1.04.75-2.04,1.55-3,2.41-.98.85-2.09,1.53-3.3,2-.44.23-.85.52-1.21.86l-.8.58c-.25.18-.46.41-.61.68-.34.32-.67.61-1,.87-.3.25-.58.48-.85.67-.54.45-1.04.93-1.51,1.45-.41.45-.85,1-1.33,1.55-.41.22-.79.47-1.15.77-.43.38-.83.8-1.19,1.25-.42.89-1.05,1.68-1.83,2.29-.76.56-1.47,1.19-2.12,1.88-.74.77-1.52,1.53-2.32,2.27s-1.51,1.36-2.12,1.88c-.23.35-.48.68-.76,1-.32.45-.75.79-1.26,1-.75.66-1.46,1.37-2.12,2.13-.71.74-1.48,1.41-2.32,2-.83.59-1.6,1.26-2.31,2-.68.71-1.4,1.38-2.17,2-.65.5-1.35,1-2.08,1.54-.7-.61-1.41-1.21-2.15-1.77-.85-.73-1.67-1.51-2.43-2.34-.4-.47-1.11-1.21-2.13-2.23-1.04-.6-1.98-1.37-2.77-2.28-.77-.89-1.65-1.69-2.61-2.37-1.48-1.29-2.97-2.66-4.46-4.11-1.48-1.45-3-2.89-4.56-4.31-.61-.54-1.1-1-1.47-1.42-.42-.45-.88-.86-1.37-1.22-.52-.45-1.01-.92-1.47-1.42s-.95-.97-1.47-1.42l-2.74-2.44c-1.15-.52-2.2-1.24-3.09-2.13-.98-.94-2.01-1.82-3.09-2.63-.87-.85-1.89-1.52-3-2-.62-.38-1.22-.8-1.78-1.27-.43-.31-.82-.66-1.16-1.07-.51-.19-.99-.46-1.42-.81-.52-.39-1.1-.7-1.72-.91-.53-.15-1.07-.22-1.62-.21-.41-.03-.82,0-1.21.11-1.35.67-1.49,1.59-.4,2.74.2.74-.07.96-.81.66-.51-.24-1.07-.4-1.63-.46-.57-.11-1.17,0-1.66.32l-1.26.56c-.4.4-1.01.5-1.52.26-.59-.3-1.1-.73-1.48-1.27-.49-1.03-1.43-1.77-2.54-2l-1,.51c-.6.35-1.15.8-1.62,1.32-.43.26-.94.33-1.42.2-.41-.13-.88.1-1.42.72.06.13.27.54.61,1.21.3.46.16,1.08-.3,1.38-.07.05-.15.08-.23.11l-1.42.2-1.42.21c-.67.34-.94.72-.81,1.16s-.1.9-.71,1.38l-1.42.71c-.54.27-.81.58-.81.91-.06.89-.28,1.38-.65,1.48-.54.2-1.04.49-1.48.86-.26.14-.38.49-.35,1.07.03.58-.32,1-1.06,1.17l-1.42-.81c-.67,0-1,.17-1,.51-.01.24.02.48.1.71-.09.69-.48,1.3-1.06,1.67-.57.38-.86.73-.86,1.07-.07.88-.33,1.44-.81,1.68s-.47.66,0,1.27c.95,1.21,1.33,2.12,1.12,2.73-.74,1.56-.79,2.73-.14,3.51s1.37,1.63,2.18,2.58c.41.46.69,1.02.82,1.62.07.48.54.92,1.42,1.32.8.59,1.3,1.49,1.38,2.48,0,.78-.05,1.45-.15,2l-.92.72c-.25.44-.25.98,0,1.42.27.49.81.77,1.37.71.49.12.93.38,1.27.75l1.07,1.37c.88,1.08,1.66,2,2.33,2.89s1.46,1.81,2.34,2.89c.95.88,2,1.84,3.1,2.89s2.06,2,2.8,2.78l.2.41c.11.17.27.32.46.41.32.19.61.43.86.7.68.68,1.23,1.26,1.63,1.73,3.73,3.38,7.4,6.74,11,10.08l8.18,7.55-.47.45c-.31.43-.64.84-1,1.22-.42.43-.79.91-1.12,1.41-.28.44-.62.85-1,1.21-.54.55-1.12,1.08-1.72,1.59s-1.12,1-1.56,1.3-.92.72-1.45,1.11c-1.05.73-1.95,1.65-2.68,2.7-.76,1.09-1.62,2.09-2.59,3-.41.45-.87,1-1.37,1.65-.31.38-.6.77-.87,1.17-.28.55-.68,1.03-1.18,1.4-.46.41-.72.99-.72,1.61.12.4.48.51,1.08.32.18.41.2.87.06,1.29.45.73.81,1.38,1.09,2,.29.58.08,1.29-.48,1.62l-.51,1c0,.61-.23,1.21-.63,1.67l-1.35.66c-.24.13-.43.65-.58,1.57-.19.21-.41.39-.66.53l-.74.23c-.08.46.28.73,1.07.81.55-.09,1.11.03,1.57.34.65.34,1,.12,1.1-.67-.11-.69.03-1.39.39-1.98.3-.42.59-.57.85-.43.43.28.65.79.56,1.3l.37,1.19c-.05.58-.15,1.16-.29,1.73-.11.36-.52.43-1.24.22-.64-.67-1-.86-1.07-.57-.22.49-.56.91-1,1.21-.27.44-.48.92-.62,1.42,0,.17-.27.44-.81.82-.41.41-.63.99-.58,1.57s-.17,1.16-.58,1.57c-.4.45-.78.84-1.11,1.16s-1.42.17-2.86-.26c-.39-.21-.67,0-.84.65-.18.67-.1,1.39.22,2,.06.51,0,.79-.06.82s-.25.23-.45.61c0,.33-.27.75-.8,1.29s-.8,1-.8,1.28c0,1.48.33,2.36.85,2.64.92-.18,1.39-.43,1.4-.76s.31-.75.91-1.26c.44-.08.89-.14,1.34-.17.16,0-.16.46-1,1.36-.16.36-.23.74-.22,1.13-.06.6-.32,1.17-.73,1.61l-.74.23c-.25.14-.47.32-.66.53.07.16.07.33,0,.49-.18.29-.47.5-.8.58-.51.42-1,.87-1.46,1.35-.39.42-.6.98-.58,1.56,0,.66-.43,1-1.25,1-.51-.04-1.03-.02-1.54.07-.99.3-1.47,1.21-1.44,2.73-.01.35-.11.69-.27,1-.17.32.14.52.93.61l1.17.62c.51.27.81.82.76,1.4-.02.61-.24,1.19-.63,1.66-.31.04-.63-.04-.89-.21-.2-.13-.45-.17-.69-.12-.67.64-1.23.93-1.69.85s-.57.28-.32,1.08c0,.33-.48.74-1.41,1.25l-.83,1.45c-.32.52-.73.98-1.21,1.36-.39.1-.8-.03-1.08-.32-.21-.3-.33-.64-.37-1-.09-.44-.25-.86-.47-1.24-.32-.53-.79-.96-1.36-1.22-.19.06-.46.33-.8.82-.31.42-.53.91-.63,1.42-.22,1-1,1.62-2.4,1.72-.45.29-.8.71-1,1.21-.18.49-.46.94-.82,1.32-.51.45-1.08.82-1.7,1.09-.53.22-.8.49-.81.82.47.47.67,1.14.55,1.79.59-.44,1.12-.96,1.57-1.54.72-.82,1.59-1.5,2.56-2,.52-.3.98-.69,1.36-1.15.28-.32.53-.65.76-1,.52-.37,1.08-.71,1.65-1,.57-.29.74.1.52,1.15-.07.13.07.49.42,1.09s0,1.05-1,1.36c-.36.1-.69.26-1,.47-.5.12-.93.43-1.2.87-.08.45-.17.7-.27.73s-.15.37-.17,1c-.28.85-.52,1.3-.72,1.37-.43.14-.8.43-1.05.81-.26.38-.63.67-1.06.82-.48.37-.89.83-1.21,1.35-.32.52-.74.98-1.22,1.36-.04.43-.37.77-.8.82-.57.16-1.07.51-1.41,1-.42.39-.64.94-.63,1.51.05.48,0,.97-.13,1.43-.55.17-1.12.29-1.69.36,0,.65,0,1,.08,1,.15.14.27.29.38.46.28.48.81.76,1.37.72.52-.06.79-.41.81-1.07-.31-.66-.16-1,.46-.88.56.09,1.14,0,1.64-.26.5-.21.96-.51,1.35-.9.43-.41.97-.69,1.55-.81.33-.32.51-.57.51-.73.05-.29.15-.58.31-.83.52-.48,1.24-.71,1.94-.6.69.12,1.25-.55,1.67-2,.27-.2.37-.31.31-.34s.1-.12.5-.24c.53.07,1.07.02,1.58-.16.46.08.73.26.83.56.13.34.39.61.72.76.1-.32.05-.66-.13-.94-.19-.21-.37-.43-.53-.66-.39.13-.37-.15.07-.83s1-.75,1.73-.21c.48.3.81.79.91,1.35-.02.34.14.67.43.85l.36,1.19c-.14.59-.38.88-.71.88s-.52.05-.59.18c-.54.19-.98.59-1.21,1.11-.25.56-.63,1.04-1.12,1.4-.4.45-.51.81-.32,1.08.22.28.58.42.93.37.47-.03.93-.18,1.34-.42.51-.33.88-.85,1-1.45l.32-1.08c.59.1,1.16.31,1.67.63.78.41,1.74.17,2.87-.73.28-.2.48-.49.57-.82.09-.32.21-.63.36-.93,0-.31.08-.61.22-.89,0-.3.12-.6.31-.83.14-.1.18-.41.12-.93-.61-.12-1.24-.01-1.78.3-.5.29-1.12.26-1.58-.08-.22.09-.45.14-.69.13-.3-.04-.59-.04-.89,0,0-.62.12-1.24.34-1.82.17-.51.53-.95,1-1.21.62-.1,1.19-.42,1.6-.9.54-.55.48-1-.17-1.34-.37.15-.72.34-1.05.57-.53.39-.95.91-1.21,1.51-.49.46-1.13.74-1.8.8-.59,0-.85-.2-.77-.66.22-1,.58-1.56,1.07-1.55.59-.04,1.13-.36,1.45-.86.38-.47.78-.92,1.21-1.35.43-.44.84-.9,1.22-1.38.07-.52.1-1.05.09-1.57,0-.27.15-.46.55-.58.59.29,1.09.72,1.45,1.26.31.38.38.9.17,1.34-.44.44-.59,1.09-.38,1.67.22.53.63.54,1.23,0,.61-.84.69-1.46.24-1.86-.44-.36-.62-.95-.46-1.5,0-.33.31-.75.92-1.26l.8-.57c.42-1.16,1.2-2.14,2.23-2.82l1.09-.17c.67-.31,1-.69,1-1.11s.27-.9.88-1.41c.78.08,1,.38.77.9-.42.78-.44,1.31-.09,1.58.31.26.74.34,1.13.22.72-.11,1.12.09,1.17.62s-.25.95-.91,1.26c-.51.23-.91.64-1.12,1.16l-.41.78c-.41.78-.72,1.2-.92,1.27s-.76.17-1.68.35c-1.13.57-1.71,1.26-1.73,2.09.05.67-.45,1.25-1.11,1.3-.07,0-.13,0-.2,0-.46-.31-1.08-.2-1.39.26-.06.45-.24.88-.52,1.23-.34.48-.05,1,.86,1.45,0,.31-.16.6-.41.78-.27.19-.24.45.08.79.44-.18.75-.59.81-1.07.49-.29,1.07-.38,1.63-.26.45.14.94.08,1.34-.17.31-.52.49-1.11.53-1.71-.02-.38.13-.75.42-1,.74-.6,1.32-1.37,1.69-2.25.13-.58.62-1.02,1.21-1.1.45-.15.93-.15,1.38,0,.86-.05,1.1-.26.71-.63s-.28-.81.32-1.33c.94-1,2.11-1.75,3.41-2.19.35-.35.76-.64,1.2-.86.63-.36,1.21-.82,1.71-1.34.54-.39,1-.76,1.46-1.11.49-.47.7-1.15.58-1.81.08-.79.44-1.22,1.06-1.31.73-.11,1.44-.27,2.14-.49.66-.31,1-.72,1-1.21.03-.54.25-1.04.63-1.42.4-.3.76-.66,1.06-1.06.29-.44.65-.82,1.07-1.14,1.03-.91,2.15-1.7,3.36-2.35,1.06-.58,1.82-1.58,2.08-2.76.31-.4.64-.77,1-1.12.51-.55,1.07-1.05,1.67-1.49.43-.37.92-.66,1.45-.86.16,0,.24.17.23.5s.23.29.31-.34c.03-.55.34-1.04.81-1.31.49-.21.96-.46,1.4-.76.42-.34.8-.73,1.12-1.16.91-.07,1.75-.54,2.29-1.28.75-.86,1.66-1.57,2.68-2.07,1.2-.24,2.32-.76,3.29-1.5.87-.71,1.77-1.48,2.71-2.31.94-.84,1.95-1.61,3-2.3,1.01-.69,1.94-1.5,2.77-2.41.31-.39.67-.75,1.06-1.06.54-.51,1.12-.98,1.72-1.42.43-.39.9-.72,1.41-1,.5-.28.97-.61,1.4-1l.35-.48c.4.25.77.54,1.11.86.13.04.28.04.41,0h.4c.17.04.32.15.41.3.24.18.5.36.76.51.26.15.52.32.76.5l1.61,1.56c.46.45,1.01.79,1.62,1,.25.13.54.16.82.1l.3.11c.82.27,1.29.54,1.42.81.11.29.18.6.21.91.07.47.27.2.61-.81.67-.35,1.08-.2,1.22.41.1.58.63.98,1.22.92.37.24.76.43,1.18.57.53.17.92.62,1,1.17.21.52.23,1.1.06,1.64-.17.36-.15.79.06,1.13.78.7,1.73,1.19,2.75,1.43.28.01.55-.04.81-.15.3-.11.62-.11.92,0,.27.21.21.76-.2,1.64.3.12.62.12.92,0,.19-.08.42-.08.61,0,.34.09.64.31.82.62.18.3.47.52.81.61.49.04.97.14,1.43.31.63.25,1.03.87,1,1.54-.05.38-.03.76.06,1.13.11.54.6.68,1.48.41,1.36,0,1.76.65,1.23,1.94-.81,1.09-.57,1.91.72,2.46.38.28.72.62,1,1,.28.38.62.72,1,1,1.08.13,1.45-.06,1.11-.56-.3-.44-.57-.9-.81-1.37-.14-.95.01-1.24.45-.87.44.38.94.76,1.48,1.17.58.3,1.04.78,1.32,1.37.14.41.14.85,0,1.26-.19.52-.46,1-.81,1.43.29.2.65.29,1,.25.39-.04.77.19.91.56l.71,1.42c.41.47.94.81,1.53,1,.4.13.84.09,1.21-.11.66-.17,1.36-.06,1.93.31.14-.07.56.18,1.27.75.56.47,1.16.89,1.78,1.27.4.14.84.1,1.22-.1.41-.21.64.1.71.91.17.31.39.58.66.81.39.34.74.72,1.07,1.12.61.54,1.05.91,1.32,1.11.58.23,1.23.27,1.83.1.16-.07.35-.07.51,0,.27.05.52.19.71.4.27.21.41.39.4.56s.18.42.51.76c.64.22,1.25.5,1.83.86.37.19.71.45,1,.76.35.37.56.86.56,1.37,0,.58.52.79,1.47.66.27-.14.73.1,1.37.7.56.51,1.08,1.06,1.58,1.63.49.45,1.05.81,1.67,1.06l1.38.45c.54.07.99.47,1.11,1,.2.56.65.99,1.22,1.16.88.42,1.58,1.12,2,2,.7,1.02,1.74,1.76,2.94,2.07,1.23.33,2.33,1.03,3.15,2,.81.93,1.87,1.62,3.05,2,.41.13.61.29.61.46.05.3.15.6.31.86.18.3.47.52.81.61.17.04.32.15.41.3.88.07,1.38.4,1.52,1,.14.61.49,1.15,1,1.52.54.47,1.05.98,1.52,1.53.46.5,1.01.91,1.63,1.21.28-.56.28-1.22,0-1.78-.18-.64-.77-1.08-1.43-1.06-.24.14-.55.08-.71-.15-.18-.17-.26-.42-.2-.66.04-.55-.14-1.1-.51-1.52-1.49-.27-2.41-.74-2.74-1.42-.12-.56-.39-1.09-.77-1.52-.23-.3-.52-.54-.86-.71-.88-.41-1.35-.84-1.42-1.32-.15-.61-.5-1.14-1-1.52-.61-.54-1.16-1-1.63-1.47s-.37-.82.3-1.16c.55-.6.64-1.09.28-1.48-.35-.38-.83-.61-1.35-.66,0-1.43-.29-2.28-.76-2.53-.81.07-1,.3-.54.7s.4.87-.16,1.46c.06.12-.14.22-.61.3-.62.05-1.24-.12-1.75-.47-1-1.32-.59-2,1.23-2.09.41.14.86,0,1.37-.56.31-.4.76-.67,1.26-.76.52.41,1.07.77,1.65,1.1.35.15.67.37.94.65-.25.55-.59,1.06-1,1.5-.24.19,0,.43.6.71.87.46,1.67,1.06,2.36,1.77.23.08.49.05.7-.08l.58-.29c.35.25.67.54.94.88l.2.4c.29,1.11.13,2.28-.44,3.27-.58.97-.44,1.66.42,2.07,1.52.09,2.46-.3,2.85-1.17.29-.59.18-1.3-.28-1.77-.49-.45-.84-1.03-1-1.67-.13-.36-.24-.74-.31-1.12-.14-.6.19-.6,1,0,.47.27.69.37.65.31s.05-.24.25-.51c.07-.54.2-.86.4-1,.26-.18.44-.46.51-.77-.07-.81-.42-1-1.07-.6s-1.1.34-1.37-.2c0-.32-.06-.63-.2-.92-.14-.27-.39-.31-.76-.12-.51.1-1.04,0-1.48-.28-.88-.41-1.33-.81-1.37-1.21s-.42-.85-1.17-1.32c-.48-.35-.88-.8-1.17-1.32-.31-.54-.79-.97-1.37-1.22-1.28-.2-1.73-.91-1.32-2.12.47-.75.39-1.09-.26-1s-1.13.1-1.47.11c-.47-.28-1-.63-1.68-1.07l-1.37-1c-.3-.24-.55-.56-.71-.91-.35-.6-.59-1.25-.71-1.93.28-.15.52-.35.71-.61.19-.26.49-.41.81-.41.88.07,1.35.17,1.42.31.68,0,1.31.39,1.62,1,.37.58.78,1.14,1.23,1.67.06.14.37.32.91.56.48.22,1,.3,1.52.25.88-.28,1.24-.16,1.07.35s.25.93,1.27,1.27c-.03.52.06,1.04.26,1.52.23.53.41,1.07.56,1.62.27.47.68.85,1.17,1.07.38.21.76.39,1.16.55,1.18.59,2.17,1.5,2.85,2.64.27.2.59.42,1,.66s.83,0,1.37-.57c1.15-.41,1.62-.81,1.41-1.22-.28-.45-.8-.68-1.32-.6-.67-.34-1-.73-1-1.17.03-.63,0-1.26-.06-1.88-.58-.05-1.13-.32-1.52-.75-.34-.4-.75-.73-1.22-.96l-.61-.2.1-.81c.51-.19,1.09-.1,1.52.25.48.3.99.56,1.52.76.75.47,1,1,.82,1.62.26.19.55.35.86.46.38.14.72.36,1,.65.27.54.74.95,1.32,1.12.61.2,1.56.57,2.84,1.11s2.19.64,2.49-.11c.32-.6.25-1.33-.19-1.85Zm1.62-2.59c.21.23.07.22-.4-.05.11-.19.2-.17.4.07v-.02ZM25.09,17.05c-.2.61-.64.58-1.32-.1-.02-.3.14-.58.41-.71.81-.07,1.11.2.91.81Zm1.13,119.21c-.58-.31-.81-.27-.69.13,0,1.31-.33,1.73-.91,1.26s-.88-.87-.87-1.2c.67-.96,1.43-1.86,2.28-2.67.84-.8,1.67-1.65,2.48-2.55.49-.41,1.08-.71,1.7-.86.1.39-.03.8-.32,1.08-.25.18-.41.47-.42.78v1.24c-.08.62-.43,1.18-.95,1.53-.11.19-.18.41-.21.63v.74c-.68.25-1.44.21-2.09-.11Zm4.13,5.17c-.09.15-.23.25-.4.29-.47.42-.99.77-1.55,1.05-.43.19-.45,0,0-.4.14-.58.26-.9.36-.92s.26-.25.46-.64c.61-.51,1.09-.71,1.45-.6.36.11.22.51-.32,1.22Zm2.61-19.33c-.05.29-.16.58-.32.83-.47.58-.88.49-1.22-.28s-.22-1.24.37-1.42c.24-.05.48-.01.69.11.2.13.45.17.69.12-.12.19-.19.41-.21.64Zm1.1-.92c-.52-.27-.74-.47-.67-.6.37-.48.78-.93,1.21-1.36.4-.44.69-.98.83-1.56.54-.71,1.07-.93,1.59-.66-.12-.39-.07-.82.13-1.18.15-.91.45-1.25.91-1s.57.72.36,1.44c-.55,1-1.08,2-1.59,2.77s-.8,1.29-.87,1.42l-.41.28c-.47.58-.97.73-1.49.45Zm.51,3.77c.45-.24.82-.61,1.06-1.07.2-.41.56-.73,1-.86.46.07.7.41.72,1-.02.45.08.9.31,1.29-.33.32-.58.4-.74.23-.2-.18-.47-.28-.74-.26-.59.18-.51.64.27,1.38.65.35,1,.57,1,.67.06.31.1.62.13.94-.55,1.04-.97,1.37-1.26,1-.3-.47-.45-1.03-.41-1.59-.28-.62-.65-1.19-1.09-1.7-.44-.51-.52-.84-.25-.98v-.05Zm.47,16.59c-.38-.36-.57-.88-.51-1.4l.59-.18c.2-.06.49.34.87,1.2-.17.72-.54.84-.95.38Zm.61-7.29c0-.33.37-.64,1.1-.91s1,0,1,.76l-.31.58c-1.05,1.32-1.62,1.15-1.79-.43Zm3,5.94c-.42-.27-.8-.61-1.11-1-.52-.6-.39-1,.37-1.17.61-.2,1.26.13,1.47.74.02.06.03.12.04.18.21.34.47.65.77.91-.23.5-.82.73-1.32.5-.09-.04-.17-.09-.25-.16h.03Zm3.24-43c.3-.42.39-.51.25-.25-.51.63-.59.71-.32.29l.07-.04Zm-.48,32.06c.48-.74.78-1.08.91-1l.29.4-1.51,1.44c-.28.23-.19-.09.28-.8l.03-.04Zm2.24,5.93l-.72,1.36c-.28.21-.54.45-.76.72-.24.3-.38.18-.44-.35.11-.32.17-.66.18-1-.03-.21-.03-.43,0-.64-.17-.6.12-1.24.68-1.52.47-.3,1.08-.16,1.38.31.01.02.03.05.04.07.06.08-.05.44-.39,1.09l.03-.04Zm1.93-41.91c-1.22,1.35-1.54,1.18-1-.51.34-.33.82-.78,1.46-1.35s1.18-.67,1.64-.26c.09.34.27.65.52.9.19.16.34.37.43.6l.09.3c-.21.72-.64.82-1.29.31-.54-.5-1.37-.48-1.88.05l.03-.04Zm1.93,34.84c-.2-.31-.31-.68-.32-1.05.4-.45.8-.41,1.18.13.16.21.29.45.38.7-.64.55-1.05.62-1.27.26l.03-.04Zm4.87-10.41c-.3-.07-.14-.36.47-.87.26-.19.46-.26.59-.19l.2.11c-.58.75-.99,1.07-1.29.99l.03-.04Zm12.62,3.05c-.46-.4-.25-.79.62-1.17.37.19.65.52.77.91-.51.62-.97.71-1.42.3l.03-.04Zm6.23-5.19c-.6.51-.93.34-1-.51.27-.52.55-.67.85-.43.3.23.36.66.13.97,0,0,0,0-.01.01l.03-.04Zm33.32,1c-.54.27-.94,0-1.22-.91-.2-.41.11-.47.92-.2.71.55.82.87.27,1.14l.03-.03Zm2.12-12c-.21.27-.61.14-1.22-.4-.07-.16-.07-.35,0-.51.27-.47.61-.64,1-.51.37.73.37,1.2.19,1.47l.03-.05Zm17.26,6.82c-.4.38-.91.29-1.52-.25v-.5c0-1.36.4-1.56,1.21-.61.59.59.69,1.04.28,1.41l.03-.05Zm.65,23.3l-.21-.41c.82-.07,1.21.12,1.17.56s-.38.44-.99-.1l.03-.05Zm1.71-7.21c-.27.47-.67.17-1.22-.91-.2-.41-.07-.91.31-1.17.4-.37.78,0,1.11,1,.11.28.04.61-.23,1.13l.03-.05Zm1.05-13.1c-.24.21-.46.1-.66-.3.22-.28.6-.36.91-.2.04.18-.04.35-.28.55l.03-.05Zm2.08,1.37c-.27.3-.71.19-1.32-.35-.14-.27-.1-.59.1-.82.22-.27.6-.35.91-.2.45.63.55,1.12.28,1.42l.03-.05Zm2.13,15.26c-.21-.74-.09-1.27.35-1.57.46-.31,1.08-.25,1.47.15.21.74.09,1.26-.35,1.57-.46.31-1.08.25-1.47-.15Zm2.59,3.14c-.64.07-1-.3-1.07-1.11.14-.41.51-.59,1.12-.56.57,0,1.09.34,1.32.86-.3.47-.81.76-1.37.77v.04Zm1.86-11.72c-.41.37-.85.25-1.32-.36-.11-.29-.18-.6-.21-.91-.06-.47.34-.51,1.22-.1.61.5.72.95.31,1.33v.04Zm6.93-9.2c.24.13.19.2-.15.2-.13-.31-.08-.42.15-.24v.04Zm.24,17.66c.51.34,1,.2,1.57-.41l.3-.91c.34-.34.71-.11,1.12.71.07.13,0,.3-.25.5-.26.25-.46.57-.56.92-.4.88-.83,1-1.27.51-.48-.58-1-1.12-1.57-1.62-.07-.17.15-.08.66.26v.04Zm8.3,17c-.81.06-1.24-.11-1.27-.51-.15-.58-.51-1.08-1-1.42-.48-.46-1.06-.82-1.68-1.06-.46-.13-.84-.44-1.06-.86,0-.34-.24-.64-.71-.91-.49-.28-.88-.71-1.12-1.22-.47-.49-1.16-.72-1.83-.61-.61.14-1.12-.2-1.53-1-.24-.64.07-1.36.71-1.62.82-.07,1.34.13,1.58.6.19.43.55.76,1,.92.41.22.77.51,1.07.86.49.45.84,1.03,1,1.67.18.6.74,1.01,1.37,1h1.37c.54.74,1,1,1.47.91s.73.27.87,1.22c.03.42.19.83.45,1.16.27.34.05.66-.69.87Zm1.25-10.88c-.14.35-.41.62-.76.77l-.76-.26c-.31-.1-.49-.21-.56-.35-.36-.39-.82-.69-1.32-.86-.5-.12-.98-.31-1.43-.56.02-.24-.01-.48-.1-.71-.06-.16-.06-.34,0-.5,1.22-.62,1.79-.48,1.73.4s.42,1.27,1.07,1.37c.55.1,1.11.12,1.67.05.41.09.56.31.46.65Zm6.57,16.89c.34,0,.42.08.26.26-.13.14-.29.26-.46.35-.15-.17-.13-.42.04-.56.05-.04.1-.07.16-.09v.04Zm-5.39-5.42c.68.17,1.09.39,1.22.66,0,.67-.3.91-.91.71l-1.22-.4c-.07-.86.24-1.18.91-1.01v.04Zm3.73-17.87c-.06.71-.37.87-.91.46-.26-.6-.1-1.3.4-1.73.41.1.58.52.51,1.23v.04Zm8.64,9.88c-.15.09-.25.24-.3.41l.2-.61c.2.03.24.1.1.16v.04Zm1.37-4.11c-.24.71-.73.83-1.47.36.06-.2.13-.49.2-.86s.41-.63,1-.77c.45.1.51.52.27,1.23v.04Zm2.35,11.26c.1.37-.08.43-.56.16l-.1-.21c.34-.38.56-.36.66,0v.04Zm1.83-16.33c.41-.88.66-1,.76-.25s0,1-.45.86-.31-.41-.31-.61Zm2.4,9.08c-.37.44-.76.26-1.17-.56-.18-.3-.51-.47-.86-.45-.5-.08-.96-.35-1.27-.76-.07-.14,0-.39.25-.76s.66-.46,1.27-.26c.47.3,1.02.42,1.57.35.38-.1.66.22.87,1-.07.53-.29,1.03-.64,1.44h-.02Zm1.25-10.66c-.26.31-.74.29-1.42-.05l.1-.3c.01-.32-.14-.63-.41-.81-.2-.14-.37-.31-.5-.51-.07-.81.18-1.15.76-1,.62.18,1.12.63,1.37,1.22.36.66.45,1.15.12,1.45h-.02Z"/>
  </g>
</svg>